<mxfile host="app.diagrams.net" modified="2024-04-10T11:41:41.367Z" agent="Mozilla/5.0 (Windows NT 10.0; Win64; x64; rv:124.0) Gecko/20100101 Firefox/124.0" etag="mVRRZL6gZ3QY6aFaYc2b" version="24.0.7" type="device">
  <diagram name="Page-1" id="g7jQOUo30wly0EwfjcqG">
    <mxGraphModel dx="2049" dy="1077" grid="1" gridSize="10" guides="1" tooltips="1" connect="1" arrows="1" fold="1" page="1" pageScale="1" pageWidth="1600" pageHeight="1600" math="0" shadow="0">
      <root>
        <mxCell id="0" />
        <mxCell id="1" parent="0" />
        <mxCell id="b2gdafw9vcIs6ifxPlmt-4" value="Cliente" style="shape=umlActor;verticalLabelPosition=bottom;verticalAlign=top;html=1;" parent="1" vertex="1">
          <mxGeometry x="660" y="820" width="30" height="60" as="geometry" />
        </mxCell>
        <mxCell id="b2gdafw9vcIs6ifxPlmt-5" value="Logrador de Mazos&lt;div&gt;(servicio)&lt;/div&gt;" style="shape=umlActor;verticalLabelPosition=bottom;verticalAlign=top;html=1;" parent="1" vertex="1">
          <mxGeometry x="1570" y="490" width="30" height="60" as="geometry" />
        </mxCell>
        <mxCell id="b2gdafw9vcIs6ifxPlmt-27" value="Papelera de mazos" style="swimlane;" parent="1" vertex="1">
          <mxGeometry x="200" y="720" width="440" height="320" as="geometry" />
        </mxCell>
        <mxCell id="b2gdafw9vcIs6ifxPlmt-29" value="Recuperar mazo/s" style="strokeWidth=2;html=1;shape=mxgraph.flowchart.start_1;whiteSpace=wrap;" parent="b2gdafw9vcIs6ifxPlmt-27" vertex="1">
          <mxGeometry x="10" y="230" width="120" height="60" as="geometry" />
        </mxCell>
        <mxCell id="b2gdafw9vcIs6ifxPlmt-57" value="&lt;div&gt;Escoger todos los mazos&lt;/div&gt;" style="strokeWidth=2;html=1;shape=mxgraph.flowchart.start_1;whiteSpace=wrap;" parent="b2gdafw9vcIs6ifxPlmt-27" vertex="1">
          <mxGeometry x="260" y="80" width="120" height="60" as="geometry" />
        </mxCell>
        <mxCell id="b2gdafw9vcIs6ifxPlmt-58" value="Borrar objeto/s" style="strokeWidth=2;html=1;shape=mxgraph.flowchart.start_1;whiteSpace=wrap;" parent="b2gdafw9vcIs6ifxPlmt-27" vertex="1">
          <mxGeometry x="130" y="230" width="120" height="60" as="geometry" />
        </mxCell>
        <mxCell id="b2gdafw9vcIs6ifxPlmt-60" value="Escoger un mazo" style="strokeWidth=2;html=1;shape=mxgraph.flowchart.start_1;whiteSpace=wrap;" parent="b2gdafw9vcIs6ifxPlmt-27" vertex="1">
          <mxGeometry x="10" y="80" width="120" height="60" as="geometry" />
        </mxCell>
        <mxCell id="oIikqwytzSIiOgdCLlzZ-25" value="" style="endArrow=none;html=1;rounded=0;entryX=0;entryY=0.5;entryDx=0;entryDy=0;entryPerimeter=0;exitX=1;exitY=0.5;exitDx=0;exitDy=0;exitPerimeter=0;" edge="1" parent="b2gdafw9vcIs6ifxPlmt-27" source="b2gdafw9vcIs6ifxPlmt-60" target="b2gdafw9vcIs6ifxPlmt-57">
          <mxGeometry width="50" height="50" relative="1" as="geometry">
            <mxPoint x="230" y="330" as="sourcePoint" />
            <mxPoint x="280" y="280" as="targetPoint" />
          </mxGeometry>
        </mxCell>
        <mxCell id="oIikqwytzSIiOgdCLlzZ-26" value="" style="endArrow=none;html=1;rounded=0;entryX=0.442;entryY=1.05;entryDx=0;entryDy=0;entryPerimeter=0;exitX=0.5;exitY=0;exitDx=0;exitDy=0;exitPerimeter=0;" edge="1" parent="b2gdafw9vcIs6ifxPlmt-27" source="b2gdafw9vcIs6ifxPlmt-29" target="b2gdafw9vcIs6ifxPlmt-60">
          <mxGeometry width="50" height="50" relative="1" as="geometry">
            <mxPoint x="230" y="330" as="sourcePoint" />
            <mxPoint x="280" y="280" as="targetPoint" />
          </mxGeometry>
        </mxCell>
        <mxCell id="oIikqwytzSIiOgdCLlzZ-27" value="" style="endArrow=none;html=1;rounded=0;exitX=0.5;exitY=0;exitDx=0;exitDy=0;exitPerimeter=0;" edge="1" parent="b2gdafw9vcIs6ifxPlmt-27" source="b2gdafw9vcIs6ifxPlmt-58" target="b2gdafw9vcIs6ifxPlmt-60">
          <mxGeometry width="50" height="50" relative="1" as="geometry">
            <mxPoint x="230" y="330" as="sourcePoint" />
            <mxPoint x="280" y="280" as="targetPoint" />
          </mxGeometry>
        </mxCell>
        <mxCell id="b2gdafw9vcIs6ifxPlmt-34" value="Escritorio del Servicio (Mazo workbench)" style="swimlane;" parent="1" vertex="1">
          <mxGeometry x="200" y="40" width="440" height="440" as="geometry" />
        </mxCell>
        <mxCell id="b2gdafw9vcIs6ifxPlmt-35" value="Registrar Usuario" style="strokeWidth=2;html=1;shape=mxgraph.flowchart.start_1;whiteSpace=wrap;" parent="b2gdafw9vcIs6ifxPlmt-34" vertex="1">
          <mxGeometry x="20" y="90" width="120" height="60" as="geometry" />
        </mxCell>
        <mxCell id="b2gdafw9vcIs6ifxPlmt-37" value="Crear/Editar un mazo" style="strokeWidth=2;html=1;shape=mxgraph.flowchart.start_1;whiteSpace=wrap;" parent="b2gdafw9vcIs6ifxPlmt-34" vertex="1">
          <mxGeometry x="20" y="240" width="120" height="60" as="geometry" />
        </mxCell>
        <mxCell id="b2gdafw9vcIs6ifxPlmt-38" value="Eliminar mazos" style="strokeWidth=2;html=1;shape=mxgraph.flowchart.start_1;whiteSpace=wrap;" parent="b2gdafw9vcIs6ifxPlmt-34" vertex="1">
          <mxGeometry x="200" y="350" width="100" height="60" as="geometry" />
        </mxCell>
        <mxCell id="b2gdafw9vcIs6ifxPlmt-39" value="Mirar los mazos" style="strokeWidth=2;html=1;shape=mxgraph.flowchart.start_1;whiteSpace=wrap;" parent="b2gdafw9vcIs6ifxPlmt-34" vertex="1">
          <mxGeometry x="30" y="350" width="100" height="60" as="geometry" />
        </mxCell>
        <mxCell id="oIikqwytzSIiOgdCLlzZ-31" value="" style="endArrow=none;html=1;rounded=0;entryX=0.855;entryY=0.855;entryDx=0;entryDy=0;entryPerimeter=0;exitX=0.2;exitY=0.017;exitDx=0;exitDy=0;exitPerimeter=0;" edge="1" parent="b2gdafw9vcIs6ifxPlmt-34" source="b2gdafw9vcIs6ifxPlmt-38" target="b2gdafw9vcIs6ifxPlmt-37">
          <mxGeometry width="50" height="50" relative="1" as="geometry">
            <mxPoint x="230" y="350" as="sourcePoint" />
            <mxPoint x="280" y="300" as="targetPoint" />
          </mxGeometry>
        </mxCell>
        <mxCell id="b2gdafw9vcIs6ifxPlmt-40" value="Creacion/Edición del Mazo" style="swimlane;" parent="1" vertex="1">
          <mxGeometry x="720" y="40" width="750" height="640" as="geometry" />
        </mxCell>
        <mxCell id="b2gdafw9vcIs6ifxPlmt-69" value="Guardar mazo" style="strokeWidth=2;html=1;shape=mxgraph.flowchart.start_1;whiteSpace=wrap;" parent="b2gdafw9vcIs6ifxPlmt-40" vertex="1">
          <mxGeometry x="50" y="410" width="120" height="60" as="geometry" />
        </mxCell>
        <mxCell id="b2gdafw9vcIs6ifxPlmt-72" value="Crear" style="strokeWidth=2;html=1;shape=mxgraph.flowchart.start_1;whiteSpace=wrap;" parent="b2gdafw9vcIs6ifxPlmt-40" vertex="1">
          <mxGeometry x="40" y="40" width="120" height="60" as="geometry" />
        </mxCell>
        <mxCell id="b2gdafw9vcIs6ifxPlmt-42" value="Añadir cartas" style="strokeWidth=2;html=1;shape=mxgraph.flowchart.start_1;whiteSpace=wrap;" parent="b2gdafw9vcIs6ifxPlmt-40" vertex="1">
          <mxGeometry x="280" y="120" width="120" height="60" as="geometry" />
        </mxCell>
        <mxCell id="b2gdafw9vcIs6ifxPlmt-73" value="Eliminar cartas" style="strokeWidth=2;html=1;shape=mxgraph.flowchart.start_1;whiteSpace=wrap;" parent="b2gdafw9vcIs6ifxPlmt-40" vertex="1">
          <mxGeometry x="280" y="190" width="120" height="60" as="geometry" />
        </mxCell>
        <mxCell id="b2gdafw9vcIs6ifxPlmt-81" value="Importar" style="strokeWidth=2;html=1;shape=mxgraph.flowchart.start_1;whiteSpace=wrap;" parent="b2gdafw9vcIs6ifxPlmt-40" vertex="1">
          <mxGeometry x="280" y="310" width="120" height="60" as="geometry" />
        </mxCell>
        <mxCell id="oIikqwytzSIiOgdCLlzZ-10" value="Nonlands" style="swimlane;" vertex="1" parent="b2gdafw9vcIs6ifxPlmt-40">
          <mxGeometry x="520" y="350" width="230" height="270" as="geometry" />
        </mxCell>
        <mxCell id="oIikqwytzSIiOgdCLlzZ-11" value="Add" style="strokeWidth=2;html=1;shape=mxgraph.flowchart.start_1;whiteSpace=wrap;" vertex="1" parent="oIikqwytzSIiOgdCLlzZ-10">
          <mxGeometry x="40" y="70" width="120" height="60" as="geometry" />
        </mxCell>
        <mxCell id="oIikqwytzSIiOgdCLlzZ-12" value="Delete" style="strokeWidth=2;html=1;shape=mxgraph.flowchart.start_1;whiteSpace=wrap;" vertex="1" parent="oIikqwytzSIiOgdCLlzZ-10">
          <mxGeometry x="40" y="170" width="120" height="60" as="geometry" />
        </mxCell>
        <mxCell id="oIikqwytzSIiOgdCLlzZ-13" value="Lands" style="swimlane;" vertex="1" parent="b2gdafw9vcIs6ifxPlmt-40">
          <mxGeometry x="520" y="80" width="230" height="270" as="geometry" />
        </mxCell>
        <mxCell id="oIikqwytzSIiOgdCLlzZ-14" value="Add" style="strokeWidth=2;html=1;shape=mxgraph.flowchart.start_1;whiteSpace=wrap;" vertex="1" parent="oIikqwytzSIiOgdCLlzZ-13">
          <mxGeometry x="40" y="70" width="120" height="60" as="geometry" />
        </mxCell>
        <mxCell id="oIikqwytzSIiOgdCLlzZ-15" value="Delete" style="strokeWidth=2;html=1;shape=mxgraph.flowchart.start_1;whiteSpace=wrap;" vertex="1" parent="oIikqwytzSIiOgdCLlzZ-13">
          <mxGeometry x="40" y="170" width="120" height="60" as="geometry" />
        </mxCell>
        <mxCell id="oIikqwytzSIiOgdCLlzZ-17" value="" style="endArrow=none;html=1;rounded=0;entryX=1;entryY=0.5;entryDx=0;entryDy=0;entryPerimeter=0;exitX=0.008;exitY=0.317;exitDx=0;exitDy=0;exitPerimeter=0;" edge="1" parent="b2gdafw9vcIs6ifxPlmt-40" source="oIikqwytzSIiOgdCLlzZ-14" target="b2gdafw9vcIs6ifxPlmt-42">
          <mxGeometry width="50" height="50" relative="1" as="geometry">
            <mxPoint x="450" y="490" as="sourcePoint" />
            <mxPoint x="500" y="440" as="targetPoint" />
          </mxGeometry>
        </mxCell>
        <mxCell id="oIikqwytzSIiOgdCLlzZ-18" value="" style="endArrow=none;html=1;rounded=0;entryX=1;entryY=0.5;entryDx=0;entryDy=0;entryPerimeter=0;exitX=0;exitY=0.5;exitDx=0;exitDy=0;exitPerimeter=0;" edge="1" parent="b2gdafw9vcIs6ifxPlmt-40" source="oIikqwytzSIiOgdCLlzZ-11" target="b2gdafw9vcIs6ifxPlmt-42">
          <mxGeometry width="50" height="50" relative="1" as="geometry">
            <mxPoint x="571" y="179" as="sourcePoint" />
            <mxPoint x="410" y="160" as="targetPoint" />
          </mxGeometry>
        </mxCell>
        <mxCell id="oIikqwytzSIiOgdCLlzZ-19" value="" style="endArrow=none;html=1;rounded=0;entryX=1;entryY=0.5;entryDx=0;entryDy=0;entryPerimeter=0;exitX=0;exitY=0.5;exitDx=0;exitDy=0;exitPerimeter=0;" edge="1" parent="b2gdafw9vcIs6ifxPlmt-40" source="oIikqwytzSIiOgdCLlzZ-12">
          <mxGeometry width="50" height="50" relative="1" as="geometry">
            <mxPoint x="560" y="520" as="sourcePoint" />
            <mxPoint x="400" y="220" as="targetPoint" />
          </mxGeometry>
        </mxCell>
        <mxCell id="oIikqwytzSIiOgdCLlzZ-20" value="" style="endArrow=none;html=1;rounded=0;entryX=1;entryY=0.5;entryDx=0;entryDy=0;entryPerimeter=0;exitX=0;exitY=0.5;exitDx=0;exitDy=0;exitPerimeter=0;" edge="1" parent="b2gdafw9vcIs6ifxPlmt-40" source="oIikqwytzSIiOgdCLlzZ-15">
          <mxGeometry width="50" height="50" relative="1" as="geometry">
            <mxPoint x="561" y="239" as="sourcePoint" />
            <mxPoint x="400" y="220" as="targetPoint" />
          </mxGeometry>
        </mxCell>
        <mxCell id="oIikqwytzSIiOgdCLlzZ-32" value="" style="endArrow=none;html=1;rounded=0;entryX=1;entryY=0.5;entryDx=0;entryDy=0;entryPerimeter=0;exitX=0;exitY=0.5;exitDx=0;exitDy=0;exitPerimeter=0;" edge="1" parent="b2gdafw9vcIs6ifxPlmt-40" source="b2gdafw9vcIs6ifxPlmt-42" target="b2gdafw9vcIs6ifxPlmt-72">
          <mxGeometry width="50" height="50" relative="1" as="geometry">
            <mxPoint x="170" y="350" as="sourcePoint" />
            <mxPoint x="220" y="300" as="targetPoint" />
          </mxGeometry>
        </mxCell>
        <mxCell id="oIikqwytzSIiOgdCLlzZ-33" value="" style="endArrow=none;html=1;rounded=0;entryX=1;entryY=0.667;entryDx=0;entryDy=0;entryPerimeter=0;exitX=0;exitY=0.5;exitDx=0;exitDy=0;exitPerimeter=0;" edge="1" parent="b2gdafw9vcIs6ifxPlmt-40" source="b2gdafw9vcIs6ifxPlmt-73" target="b2gdafw9vcIs6ifxPlmt-72">
          <mxGeometry width="50" height="50" relative="1" as="geometry">
            <mxPoint x="170" y="350" as="sourcePoint" />
            <mxPoint x="220" y="300" as="targetPoint" />
          </mxGeometry>
        </mxCell>
        <mxCell id="oIikqwytzSIiOgdCLlzZ-34" value="" style="endArrow=none;html=1;rounded=0;entryX=1;entryY=0.5;entryDx=0;entryDy=0;entryPerimeter=0;exitX=0;exitY=0.367;exitDx=0;exitDy=0;exitPerimeter=0;" edge="1" parent="b2gdafw9vcIs6ifxPlmt-40" source="b2gdafw9vcIs6ifxPlmt-81" target="b2gdafw9vcIs6ifxPlmt-72">
          <mxGeometry width="50" height="50" relative="1" as="geometry">
            <mxPoint x="170" y="350" as="sourcePoint" />
            <mxPoint x="220" y="300" as="targetPoint" />
          </mxGeometry>
        </mxCell>
        <mxCell id="b2gdafw9vcIs6ifxPlmt-46" value="Ver mazo" style="swimlane;" parent="1" vertex="1">
          <mxGeometry x="720" y="720" width="440" height="230" as="geometry" />
        </mxCell>
        <mxCell id="oIikqwytzSIiOgdCLlzZ-1" value="Exportar" style="strokeWidth=2;html=1;shape=mxgraph.flowchart.start_1;whiteSpace=wrap;" vertex="1" parent="b2gdafw9vcIs6ifxPlmt-46">
          <mxGeometry x="310" y="100" width="120" height="60" as="geometry" />
        </mxCell>
        <mxCell id="oIikqwytzSIiOgdCLlzZ-2" value="Copiar" style="strokeWidth=2;html=1;shape=mxgraph.flowchart.start_1;whiteSpace=wrap;" vertex="1" parent="b2gdafw9vcIs6ifxPlmt-46">
          <mxGeometry x="20" y="100" width="120" height="60" as="geometry" />
        </mxCell>
        <mxCell id="oIikqwytzSIiOgdCLlzZ-16" value="Change display" style="strokeWidth=2;html=1;shape=mxgraph.flowchart.start_1;whiteSpace=wrap;" vertex="1" parent="b2gdafw9vcIs6ifxPlmt-46">
          <mxGeometry x="170" y="100" width="120" height="60" as="geometry" />
        </mxCell>
        <mxCell id="b2gdafw9vcIs6ifxPlmt-61" value="Cliente" style="shape=umlActor;verticalLabelPosition=bottom;verticalAlign=top;html=1;" parent="1" vertex="1">
          <mxGeometry x="80" y="250" width="30" height="60" as="geometry" />
        </mxCell>
        <mxCell id="b2gdafw9vcIs6ifxPlmt-62" value="Cliente" style="shape=umlActor;verticalLabelPosition=bottom;verticalAlign=top;html=1;" parent="1" vertex="1">
          <mxGeometry x="80" y="940" width="30" height="60" as="geometry" />
        </mxCell>
        <mxCell id="b2gdafw9vcIs6ifxPlmt-63" value="Cliente" style="shape=umlActor;verticalLabelPosition=bottom;verticalAlign=top;html=1;" parent="1" vertex="1">
          <mxGeometry x="660" y="250" width="30" height="60" as="geometry" />
        </mxCell>
        <mxCell id="oIikqwytzSIiOgdCLlzZ-21" value="" style="endArrow=none;html=1;rounded=0;entryX=0.5;entryY=0;entryDx=0;entryDy=0;entryPerimeter=0;" edge="1" parent="1" source="b2gdafw9vcIs6ifxPlmt-4" target="oIikqwytzSIiOgdCLlzZ-16">
          <mxGeometry width="50" height="50" relative="1" as="geometry">
            <mxPoint x="1170" y="870" as="sourcePoint" />
            <mxPoint x="1220" y="820" as="targetPoint" />
            <Array as="points">
              <mxPoint x="820" y="780" />
            </Array>
          </mxGeometry>
        </mxCell>
        <mxCell id="oIikqwytzSIiOgdCLlzZ-22" value="" style="endArrow=none;html=1;rounded=0;entryX=0;entryY=0.5;entryDx=0;entryDy=0;entryPerimeter=0;" edge="1" parent="1" source="b2gdafw9vcIs6ifxPlmt-4" target="oIikqwytzSIiOgdCLlzZ-2">
          <mxGeometry width="50" height="50" relative="1" as="geometry">
            <mxPoint x="1170" y="870" as="sourcePoint" />
            <mxPoint x="1220" y="820" as="targetPoint" />
          </mxGeometry>
        </mxCell>
        <mxCell id="oIikqwytzSIiOgdCLlzZ-23" value="" style="endArrow=none;html=1;rounded=0;exitX=0.667;exitY=0.667;exitDx=0;exitDy=0;exitPerimeter=0;entryX=0.5;entryY=1;entryDx=0;entryDy=0;entryPerimeter=0;" edge="1" parent="1" source="b2gdafw9vcIs6ifxPlmt-4" target="oIikqwytzSIiOgdCLlzZ-1">
          <mxGeometry width="50" height="50" relative="1" as="geometry">
            <mxPoint x="1170" y="870" as="sourcePoint" />
            <mxPoint x="1220" y="820" as="targetPoint" />
            <Array as="points">
              <mxPoint x="880" y="920" />
            </Array>
          </mxGeometry>
        </mxCell>
        <mxCell id="oIikqwytzSIiOgdCLlzZ-24" value="" style="endArrow=none;html=1;rounded=0;entryX=0;entryY=0.5;entryDx=0;entryDy=0;entryPerimeter=0;" edge="1" parent="1" target="b2gdafw9vcIs6ifxPlmt-60">
          <mxGeometry width="50" height="50" relative="1" as="geometry">
            <mxPoint x="110" y="970" as="sourcePoint" />
            <mxPoint x="160" y="920" as="targetPoint" />
          </mxGeometry>
        </mxCell>
        <mxCell id="oIikqwytzSIiOgdCLlzZ-28" value="" style="endArrow=none;html=1;rounded=0;entryX=0.5;entryY=0.5;entryDx=0;entryDy=0;entryPerimeter=0;exitX=0;exitY=0.5;exitDx=0;exitDy=0;exitPerimeter=0;" edge="1" parent="1" source="b2gdafw9vcIs6ifxPlmt-35" target="b2gdafw9vcIs6ifxPlmt-61">
          <mxGeometry width="50" height="50" relative="1" as="geometry">
            <mxPoint x="430" y="390" as="sourcePoint" />
            <mxPoint x="480" y="340" as="targetPoint" />
          </mxGeometry>
        </mxCell>
        <mxCell id="oIikqwytzSIiOgdCLlzZ-29" value="" style="endArrow=none;html=1;rounded=0;entryX=0.633;entryY=0.833;entryDx=0;entryDy=0;entryPerimeter=0;exitX=0;exitY=0.5;exitDx=0;exitDy=0;exitPerimeter=0;" edge="1" parent="1" source="b2gdafw9vcIs6ifxPlmt-37" target="b2gdafw9vcIs6ifxPlmt-61">
          <mxGeometry width="50" height="50" relative="1" as="geometry">
            <mxPoint x="430" y="390" as="sourcePoint" />
            <mxPoint x="480" y="340" as="targetPoint" />
          </mxGeometry>
        </mxCell>
        <mxCell id="oIikqwytzSIiOgdCLlzZ-30" value="" style="endArrow=none;html=1;rounded=0;entryX=1;entryY=1;entryDx=0;entryDy=0;entryPerimeter=0;exitX=0;exitY=0.5;exitDx=0;exitDy=0;exitPerimeter=0;" edge="1" parent="1" source="b2gdafw9vcIs6ifxPlmt-39" target="b2gdafw9vcIs6ifxPlmt-61">
          <mxGeometry width="50" height="50" relative="1" as="geometry">
            <mxPoint x="430" y="390" as="sourcePoint" />
            <mxPoint x="480" y="340" as="targetPoint" />
          </mxGeometry>
        </mxCell>
        <mxCell id="oIikqwytzSIiOgdCLlzZ-36" value="" style="endArrow=none;html=1;rounded=0;entryX=0.5;entryY=1;entryDx=0;entryDy=0;entryPerimeter=0;exitX=1;exitY=0.3333333333333333;exitDx=0;exitDy=0;exitPerimeter=0;" edge="1" parent="1" source="b2gdafw9vcIs6ifxPlmt-63" target="b2gdafw9vcIs6ifxPlmt-72">
          <mxGeometry width="50" height="50" relative="1" as="geometry">
            <mxPoint x="890" y="390" as="sourcePoint" />
            <mxPoint x="940" y="340" as="targetPoint" />
          </mxGeometry>
        </mxCell>
        <mxCell id="oIikqwytzSIiOgdCLlzZ-37" value="" style="endArrow=none;html=1;rounded=0;entryX=0.767;entryY=0.95;entryDx=0;entryDy=0;entryPerimeter=0;exitX=0.145;exitY=0.145;exitDx=0;exitDy=0;exitPerimeter=0;" edge="1" parent="1" source="b2gdafw9vcIs6ifxPlmt-69" target="b2gdafw9vcIs6ifxPlmt-63">
          <mxGeometry width="50" height="50" relative="1" as="geometry">
            <mxPoint x="890" y="390" as="sourcePoint" />
            <mxPoint x="940" y="340" as="targetPoint" />
          </mxGeometry>
        </mxCell>
        <mxCell id="oIikqwytzSIiOgdCLlzZ-38" value="" style="endArrow=classic;html=1;rounded=0;exitX=1;exitY=0.5;exitDx=0;exitDy=0;exitPerimeter=0;entryX=0;entryY=0.3333333333333333;entryDx=0;entryDy=0;entryPerimeter=0;" edge="1" parent="1" source="b2gdafw9vcIs6ifxPlmt-69" target="b2gdafw9vcIs6ifxPlmt-5">
          <mxGeometry relative="1" as="geometry">
            <mxPoint x="1130" y="600" as="sourcePoint" />
            <mxPoint x="1290" y="600" as="targetPoint" />
            <Array as="points">
              <mxPoint x="1420" y="830" />
            </Array>
          </mxGeometry>
        </mxCell>
        <mxCell id="oIikqwytzSIiOgdCLlzZ-39" value="Label" style="edgeLabel;resizable=0;html=1;;align=center;verticalAlign=middle;" connectable="0" vertex="1" parent="oIikqwytzSIiOgdCLlzZ-38">
          <mxGeometry relative="1" as="geometry" />
        </mxCell>
        <mxCell id="oIikqwytzSIiOgdCLlzZ-40" value="Source" style="edgeLabel;resizable=0;html=1;;align=left;verticalAlign=bottom;" connectable="0" vertex="1" parent="oIikqwytzSIiOgdCLlzZ-38">
          <mxGeometry x="-1" relative="1" as="geometry" />
        </mxCell>
      </root>
    </mxGraphModel>
  </diagram>
</mxfile>
